<svg width="1510" height="285" viewBox="0 0 1510 285" fill="none" xmlns="http://www.w3.org/2000/svg">
<g id="Graphic Side">
<g clip-path="url(#clip0_5530_2665)">
<path d="M0 0H1510V269C1510 277.837 1502.84 285 1494 285H16C7.16346 285 0 277.837 0 269V0Z" fill="url(#paint0_radial_5530_2665)"/>
<g id="Big Circles">
<g id="Ellipse 5" style="mix-blend-mode:multiply" opacity="0.75" filter="url(#filter0_i_5530_2665)">
<ellipse cx="884" cy="823.307" rx="1056.31" ry="1078" transform="rotate(90 884 823.307)" fill="white"/>
</g>
<g id="Ellipse 4" style="mix-blend-mode:multiply" opacity="0.75" filter="url(#filter1_i_5530_2665)">
<ellipse cx="641.164" cy="823.307" rx="817.689" ry="835.164" transform="rotate(90 641.164 823.307)" fill="white"/>
</g>
<g id="Ellipse 3" style="mix-blend-mode:multiply" opacity="0.75" filter="url(#filter2_i_5530_2665)">
<ellipse cx="609.228" cy="901.642" rx="694.765" ry="709.226" transform="rotate(90 609.228 901.642)" fill="white"/>
</g>
</g>
<g id="Frame 35289">
<g id="Frame 35288">
<path id="&#196;&#144;&#196;&#131;ng k&#195;&#189; gi&#225;&#187;&#141;ng n&#195;&#179;i" d="M52.044 132H44.473V126.73H51.7884C53.6065 126.73 55.1359 126.408 56.3764 125.764C57.6264 125.111 58.5639 124.102 59.1889 122.739C59.8234 121.366 60.1406 119.595 60.1406 117.426C60.1406 115.277 59.8234 113.52 59.1889 112.156C58.5639 110.793 57.6312 109.789 56.3906 109.145C55.1501 108.501 53.6207 108.179 51.8026 108.179H44.3452V102.909H52.1293C55.0554 102.909 57.5743 103.491 59.6861 104.656C61.7978 105.812 63.4219 107.473 64.5582 109.642C65.7041 111.811 66.277 114.405 66.277 117.426C66.277 120.456 65.7041 123.061 64.5582 125.239C63.4219 127.417 61.7884 129.088 59.6577 130.253C57.5365 131.418 54.9986 132 52.044 132ZM47.8821 102.909V132H41.7315V102.909H47.8821ZM37.6974 118.449V114.869H51.8594V118.449H37.6974ZM76.9411 132.412C75.549 132.412 74.3085 132.17 73.2195 131.688C72.1304 131.195 71.2687 130.471 70.6342 129.514C70.0092 128.548 69.6967 127.346 69.6967 125.906C69.6967 124.694 69.9193 123.676 70.3643 122.852C70.8094 122.028 71.4155 121.366 72.1825 120.864C72.9496 120.362 73.8208 119.983 74.7962 119.727C75.781 119.472 76.8132 119.292 77.8928 119.188C79.1617 119.055 80.1844 118.932 80.9609 118.818C81.7375 118.695 82.3009 118.515 82.6513 118.278C83.0017 118.042 83.1768 117.691 83.1768 117.227V117.142C83.1768 116.242 82.8928 115.546 82.3246 115.054C81.7659 114.562 80.9704 114.315 79.9382 114.315C78.8492 114.315 77.9827 114.557 77.3388 115.04C76.6948 115.513 76.2687 116.11 76.0604 116.83L70.4638 116.375C70.7479 115.049 71.3066 113.903 72.1399 112.938C72.9732 111.962 74.0481 111.214 75.3643 110.693C76.6901 110.163 78.2242 109.898 79.9666 109.898C81.1787 109.898 82.3388 110.04 83.4467 110.324C84.5642 110.608 85.5537 111.048 86.4155 111.645C87.2867 112.241 87.9732 113.009 88.4751 113.946C88.977 114.874 89.228 115.987 89.228 117.284V132H83.4893V128.974H83.3189C82.9685 129.656 82.4998 130.258 81.9126 130.778C81.3255 131.29 80.62 131.692 79.7962 131.986C78.9723 132.27 78.0206 132.412 76.9411 132.412ZM78.674 128.236C79.5642 128.236 80.3501 128.061 81.032 127.71C81.7138 127.35 82.2488 126.867 82.6371 126.261C83.0253 125.655 83.2195 124.969 83.2195 124.202V121.886C83.0301 122.009 82.7697 122.123 82.4382 122.227C82.1162 122.322 81.7517 122.412 81.3445 122.497C80.9373 122.573 80.5301 122.644 80.1229 122.71C79.7157 122.767 79.3464 122.819 79.0149 122.866C78.3047 122.971 77.6844 123.136 77.1541 123.364C76.6238 123.591 76.2119 123.899 75.9183 124.287C75.6248 124.666 75.478 125.139 75.478 125.707C75.478 126.531 75.7763 127.161 76.3729 127.597C76.9789 128.023 77.746 128.236 78.674 128.236ZM83.0064 102.568H87.2251C87.2157 104.292 86.5765 105.679 85.3075 106.73C84.0481 107.781 82.3435 108.307 80.1939 108.307C78.0348 108.307 76.3255 107.781 75.0661 106.73C73.8066 105.679 73.1768 104.292 73.1768 102.568H77.3672C77.3577 103.222 77.5661 103.809 77.9922 104.33C78.4278 104.85 79.1617 105.111 80.1939 105.111C81.1977 105.111 81.9174 104.855 82.353 104.344C82.7886 103.832 83.0064 103.241 83.0064 102.568ZM99.9737 119.386V132H93.9226V110.182H99.6896V114.031H99.9453C100.428 112.762 101.238 111.759 102.374 111.02C103.511 110.272 104.888 109.898 106.508 109.898C108.023 109.898 109.344 110.229 110.471 110.892C111.598 111.555 112.474 112.502 113.099 113.733C113.724 114.955 114.036 116.413 114.036 118.108V132H107.985V119.188C107.995 117.852 107.654 116.811 106.962 116.062C106.271 115.305 105.319 114.926 104.107 114.926C103.293 114.926 102.573 115.101 101.948 115.452C101.333 115.802 100.85 116.313 100.499 116.986C100.158 117.649 99.9832 118.449 99.9737 119.386ZM128.635 140.636C126.675 140.636 124.994 140.366 123.592 139.827C122.2 139.296 121.092 138.572 120.268 137.653C119.445 136.735 118.91 135.703 118.663 134.557L124.26 133.804C124.43 134.24 124.7 134.647 125.07 135.026C125.439 135.404 125.927 135.707 126.533 135.935C127.148 136.171 127.896 136.29 128.777 136.29C130.093 136.29 131.178 135.968 132.03 135.324C132.892 134.689 133.322 133.624 133.322 132.128V128.136H133.067C132.802 128.742 132.404 129.315 131.874 129.855C131.343 130.395 130.661 130.835 129.828 131.176C128.995 131.517 128 131.688 126.845 131.688C125.207 131.688 123.715 131.309 122.371 130.551C121.036 129.784 119.97 128.615 119.175 127.043C118.389 125.461 117.996 123.463 117.996 121.048C117.996 118.577 118.398 116.512 119.203 114.855C120.008 113.198 121.078 111.957 122.413 111.134C123.758 110.31 125.231 109.898 126.831 109.898C128.053 109.898 129.075 110.106 129.899 110.523C130.723 110.93 131.386 111.441 131.888 112.057C132.399 112.663 132.792 113.259 133.067 113.847H133.294V110.182H139.303V132.213C139.303 134.069 138.848 135.622 137.939 136.872C137.03 138.122 135.77 139.06 134.161 139.685C132.56 140.319 130.718 140.636 128.635 140.636ZM128.763 127.142C129.738 127.142 130.562 126.901 131.234 126.418C131.916 125.925 132.437 125.224 132.797 124.315C133.166 123.397 133.351 122.298 133.351 121.02C133.351 119.741 133.171 118.634 132.811 117.696C132.451 116.749 131.93 116.015 131.249 115.494C130.567 114.973 129.738 114.713 128.763 114.713C127.768 114.713 126.93 114.983 126.249 115.523C125.567 116.053 125.051 116.792 124.7 117.739C124.35 118.686 124.175 119.779 124.175 121.02C124.175 122.279 124.35 123.368 124.7 124.287C125.06 125.196 125.576 125.902 126.249 126.403C126.93 126.896 127.768 127.142 128.763 127.142ZM158.859 125.722L158.873 118.463H159.754L166.742 110.182H173.688L164.299 121.148H162.864L158.859 125.722ZM153.376 132V102.909H159.427V132H153.376ZM167.012 132L160.592 122.497L164.626 118.222L174.1 132H167.012ZM180.744 140.182C179.977 140.182 179.258 140.12 178.585 139.997C177.922 139.884 177.373 139.737 176.938 139.557L178.301 135.04C179.011 135.258 179.651 135.376 180.219 135.395C180.796 135.414 181.294 135.281 181.71 134.997C182.136 134.713 182.482 134.23 182.747 133.548L183.102 132.625L175.276 110.182H181.639L186.156 126.205H186.384L190.943 110.182H197.349L188.869 134.358C188.462 135.532 187.908 136.555 187.207 137.426C186.516 138.307 185.64 138.984 184.58 139.457C183.519 139.94 182.241 140.182 180.744 140.182ZM184.097 107.369L187.108 100.906H192.705L188.372 107.369H184.097ZM219.533 140.636C217.573 140.636 215.892 140.366 214.491 139.827C213.099 139.296 211.991 138.572 211.167 137.653C210.343 136.735 209.808 135.703 209.562 134.557L215.158 133.804C215.329 134.24 215.599 134.647 215.968 135.026C216.337 135.404 216.825 135.707 217.431 135.935C218.047 136.171 218.795 136.29 219.675 136.29C220.992 136.29 222.076 135.968 222.928 135.324C223.79 134.689 224.221 133.624 224.221 132.128V128.136H223.965C223.7 128.742 223.302 129.315 222.772 129.855C222.242 130.395 221.56 130.835 220.727 131.176C219.893 131.517 218.899 131.688 217.744 131.688C216.105 131.688 214.614 131.309 213.269 130.551C211.934 129.784 210.869 128.615 210.073 127.043C209.287 125.461 208.894 123.463 208.894 121.048C208.894 118.577 209.297 116.512 210.102 114.855C210.906 113.198 211.977 111.957 213.312 111.134C214.656 110.31 216.129 109.898 217.729 109.898C218.951 109.898 219.974 110.106 220.798 110.523C221.621 110.93 222.284 111.441 222.786 112.057C223.298 112.663 223.691 113.259 223.965 113.847H224.192V110.182H230.201V132.213C230.201 134.069 229.746 135.622 228.837 136.872C227.928 138.122 226.669 139.06 225.059 139.685C223.459 140.319 221.617 140.636 219.533 140.636ZM219.661 127.142C220.637 127.142 221.46 126.901 222.133 126.418C222.815 125.925 223.335 125.224 223.695 124.315C224.065 123.397 224.249 122.298 224.249 121.02C224.249 119.741 224.069 118.634 223.71 117.696C223.35 116.749 222.829 116.015 222.147 115.494C221.465 114.973 220.637 114.713 219.661 114.713C218.667 114.713 217.829 114.983 217.147 115.523C216.465 116.053 215.949 116.792 215.599 117.739C215.248 118.686 215.073 119.779 215.073 121.02C215.073 122.279 215.248 123.368 215.599 124.287C215.959 125.196 216.475 125.902 217.147 126.403C217.829 126.896 218.667 127.142 219.661 127.142ZM235.016 132V110.182H241.067V132H235.016ZM238.056 107.369C237.156 107.369 236.385 107.071 235.741 106.474C235.106 105.868 234.789 105.144 234.789 104.301C234.789 103.468 235.106 102.753 235.741 102.156C236.385 101.55 237.156 101.247 238.056 101.247C238.956 101.247 239.723 101.55 240.357 102.156C241.001 102.753 241.323 103.468 241.323 104.301C241.323 105.144 241.001 105.868 240.357 106.474C239.723 107.071 238.956 107.369 238.056 107.369ZM255.773 132.426C253.566 132.426 251.658 131.957 250.048 131.02C248.448 130.073 247.212 128.757 246.341 127.071C245.47 125.376 245.034 123.411 245.034 121.176C245.034 118.922 245.47 116.953 246.341 115.267C247.212 113.572 248.448 112.256 250.048 111.318C251.658 110.371 253.566 109.898 255.773 109.898C257.979 109.898 259.883 110.371 261.483 111.318C263.093 112.256 264.333 113.572 265.205 115.267C266.076 116.953 266.511 118.922 266.511 121.176C266.511 123.411 266.076 125.376 265.205 127.071C264.333 128.757 263.093 130.073 261.483 131.02C259.883 131.957 257.979 132.426 255.773 132.426ZM255.801 127.739C256.805 127.739 257.643 127.455 258.315 126.886C258.988 126.309 259.494 125.523 259.835 124.528C260.186 123.534 260.361 122.402 260.361 121.134C260.361 119.865 260.186 118.733 259.835 117.739C259.494 116.744 258.988 115.958 258.315 115.381C257.643 114.803 256.805 114.514 255.801 114.514C254.788 114.514 253.936 114.803 253.244 115.381C252.563 115.958 252.046 116.744 251.696 117.739C251.355 118.733 251.185 119.865 251.185 121.134C251.185 122.402 251.355 123.534 251.696 124.528C252.046 125.523 252.563 126.309 253.244 126.886C253.936 127.455 254.788 127.739 255.801 127.739ZM255.773 140.168C254.873 140.168 254.101 139.869 253.457 139.273C252.813 138.676 252.491 137.956 252.491 137.114C252.491 136.271 252.813 135.551 253.457 134.955C254.101 134.358 254.873 134.06 255.773 134.06C256.672 134.06 257.439 134.358 258.074 134.955C258.718 135.551 259.04 136.271 259.04 137.114C259.04 137.956 258.718 138.676 258.074 139.273C257.439 139.869 256.672 140.168 255.773 140.168ZM276.497 119.386V132H270.446V110.182H276.213V114.031H276.469C276.952 112.762 277.761 111.759 278.898 111.02C280.034 110.272 281.412 109.898 283.031 109.898C284.546 109.898 285.867 110.229 286.994 110.892C288.121 111.555 288.997 112.502 289.622 113.733C290.247 114.955 290.56 116.413 290.56 118.108V132H284.509V119.188C284.518 117.852 284.177 116.811 283.486 116.062C282.795 115.305 281.843 114.926 280.631 114.926C279.816 114.926 279.097 115.101 278.472 115.452C277.856 115.802 277.373 116.313 277.023 116.986C276.682 117.649 276.507 118.449 276.497 119.386ZM305.158 140.636C303.198 140.636 301.517 140.366 300.116 139.827C298.724 139.296 297.616 138.572 296.792 137.653C295.968 136.735 295.433 135.703 295.187 134.557L300.783 133.804C300.954 134.24 301.224 134.647 301.593 135.026C301.962 135.404 302.45 135.707 303.056 135.935C303.672 136.171 304.42 136.29 305.3 136.29C306.617 136.29 307.701 135.968 308.553 135.324C309.415 134.689 309.846 133.624 309.846 132.128V128.136H309.59C309.325 128.742 308.927 129.315 308.397 129.855C307.867 130.395 307.185 130.835 306.352 131.176C305.518 131.517 304.524 131.688 303.369 131.688C301.73 131.688 300.239 131.309 298.894 130.551C297.559 129.784 296.494 128.615 295.698 127.043C294.912 125.461 294.519 123.463 294.519 121.048C294.519 118.577 294.922 116.512 295.727 114.855C296.531 113.198 297.602 111.957 298.937 111.134C300.281 110.31 301.754 109.898 303.354 109.898C304.576 109.898 305.599 110.106 306.423 110.523C307.246 110.93 307.909 111.441 308.411 112.057C308.923 112.663 309.316 113.259 309.59 113.847H309.817V110.182H315.826V132.213C315.826 134.069 315.371 135.622 314.462 136.872C313.553 138.122 312.294 139.06 310.684 139.685C309.084 140.319 307.242 140.636 305.158 140.636ZM305.286 127.142C306.262 127.142 307.085 126.901 307.758 126.418C308.44 125.925 308.96 125.224 309.32 124.315C309.69 123.397 309.874 122.298 309.874 121.02C309.874 119.741 309.694 118.634 309.335 117.696C308.975 116.749 308.454 116.015 307.772 115.494C307.09 114.973 306.262 114.713 305.286 114.713C304.292 114.713 303.454 114.983 302.772 115.523C302.09 116.053 301.574 116.792 301.224 117.739C300.873 118.686 300.698 119.779 300.698 121.02C300.698 122.279 300.873 123.368 301.224 124.287C301.584 125.196 302.1 125.902 302.772 126.403C303.454 126.896 304.292 127.142 305.286 127.142ZM335.95 119.386V132H329.899V110.182H335.666V114.031H335.922C336.405 112.762 337.214 111.759 338.351 111.02C339.487 110.272 340.865 109.898 342.484 109.898C344 109.898 345.321 110.229 346.447 110.892C347.574 111.555 348.45 112.502 349.075 113.733C349.7 114.955 350.013 116.413 350.013 118.108V132H343.962V119.188C343.971 117.852 343.63 116.811 342.939 116.062C342.248 115.305 341.296 114.926 340.084 114.926C339.269 114.926 338.55 115.101 337.925 115.452C337.309 115.802 336.826 116.313 336.476 116.986C336.135 117.649 335.96 118.449 335.95 119.386ZM364.64 132.426C362.433 132.426 360.525 131.957 358.915 131.02C357.315 130.073 356.079 128.757 355.208 127.071C354.337 125.376 353.901 123.411 353.901 121.176C353.901 118.922 354.337 116.953 355.208 115.267C356.079 113.572 357.315 112.256 358.915 111.318C360.525 110.371 362.433 109.898 364.64 109.898C366.846 109.898 368.75 110.371 370.35 111.318C371.96 112.256 373.201 113.572 374.072 115.267C374.943 116.953 375.379 118.922 375.379 121.176C375.379 123.411 374.943 125.376 374.072 127.071C373.201 128.757 371.96 130.073 370.35 131.02C368.75 131.957 366.846 132.426 364.64 132.426ZM364.668 127.739C365.672 127.739 366.51 127.455 367.183 126.886C367.855 126.309 368.362 125.523 368.702 124.528C369.053 123.534 369.228 122.402 369.228 121.134C369.228 119.865 369.053 118.733 368.702 117.739C368.362 116.744 367.855 115.958 367.183 115.381C366.51 114.803 365.672 114.514 364.668 114.514C363.655 114.514 362.803 114.803 362.112 115.381C361.43 115.958 360.914 116.744 360.563 117.739C360.222 118.733 360.052 119.865 360.052 121.134C360.052 122.402 360.222 123.534 360.563 124.528C360.914 125.523 361.43 126.309 362.112 126.886C362.803 127.455 363.655 127.739 364.668 127.739ZM362.467 107.369L365.478 100.906H371.075L366.742 107.369H362.467ZM379.313 132V110.182H385.364V132H379.313ZM382.353 107.369C381.453 107.369 380.682 107.071 380.038 106.474C379.403 105.868 379.086 105.144 379.086 104.301C379.086 103.468 379.403 102.753 380.038 102.156C380.682 101.55 381.453 101.247 382.353 101.247C383.253 101.247 384.02 101.55 384.654 102.156C385.298 102.753 385.62 103.468 385.62 104.301C385.62 105.144 385.298 105.868 384.654 106.474C384.02 107.071 383.253 107.369 382.353 107.369Z" fill="white"/>
<path id="Ch&#195;&#160;o m&#225;&#187;&#171;ng b&#225;&#186;&#161;n &#196;&#145;&#195;&#163; s&#225;&#187;&#173; d&#225;&#187;&#165;ng h&#225;&#187;&#135; th&#225;&#187;&#145;ng &#225;&#187;&#167;a n&#195;&#179;i g&#195;&#172; gi&#225;&#187;&#157;" d="M54.8641 160.712H52.3158C52.2178 160.168 52.0354 159.689 51.7686 159.275C51.5018 158.861 51.1751 158.51 50.7885 158.221C50.4019 157.933 49.969 157.715 49.4898 157.568C49.0161 157.421 48.5124 157.347 47.9788 157.347C47.015 157.347 46.152 157.59 45.3897 158.074C44.6328 158.559 44.0339 159.269 43.5928 160.206C43.1572 161.143 42.9394 162.286 42.9394 163.636C42.9394 164.998 43.1572 166.147 43.5928 167.083C44.0339 168.02 44.6355 168.728 45.3979 169.207C46.1602 169.686 47.0178 169.925 47.9707 169.925C48.4988 169.925 48.9998 169.855 49.4735 169.713C49.9527 169.566 50.3856 169.351 50.7722 169.068C51.1588 168.785 51.4855 168.439 51.7523 168.031C52.0245 167.617 52.2124 167.143 52.3158 166.609L54.8641 166.618C54.728 167.44 54.4639 168.197 54.0719 168.888C53.6853 169.574 53.187 170.168 52.5772 170.669C51.9728 171.164 51.2813 171.548 50.5026 171.82C49.724 172.093 48.8745 172.229 47.9543 172.229C46.5059 172.229 45.2155 171.886 44.0829 171.2C42.9503 170.508 42.0573 169.52 41.4039 168.235C40.7559 166.95 40.432 165.417 40.432 163.636C40.432 161.85 40.7587 160.318 41.4121 159.038C42.0655 157.753 42.9585 156.767 44.091 156.081C45.2236 155.39 46.5114 155.044 47.9543 155.044C48.8419 155.044 49.6695 155.172 50.4373 155.428C51.2105 155.678 51.9047 156.049 52.52 156.539C53.1353 157.023 53.6444 157.617 54.0474 158.319C54.4503 159.016 54.7226 159.814 54.8641 160.712ZM60.1302 164.551V172H57.6881V155.273H60.0975V161.496H60.2527C60.5467 160.821 60.996 160.285 61.6004 159.887C62.2048 159.49 62.9943 159.291 63.969 159.291C64.8293 159.291 65.5807 159.468 66.2232 159.822C66.8712 160.176 67.3721 160.704 67.7261 161.407C68.0854 162.104 68.2651 162.975 68.2651 164.02V172H65.823V164.314C65.823 163.394 65.5862 162.681 65.1124 162.174C64.6387 161.663 63.9799 161.407 63.1359 161.407C62.5587 161.407 62.0414 161.529 61.584 161.774C61.1321 162.019 60.7754 162.379 60.5141 162.852C60.2582 163.321 60.1302 163.887 60.1302 164.551ZM75.1749 172.278C74.38 172.278 73.6612 172.131 73.0187 171.837C72.3762 171.537 71.8671 171.104 71.4913 170.538C71.1211 169.972 70.9359 169.277 70.9359 168.455C70.9359 167.747 71.0721 167.165 71.3443 166.707C71.6166 166.25 71.9841 165.888 72.447 165.621C72.9098 165.354 73.4271 165.153 73.9988 165.017C74.5705 164.881 75.1532 164.777 75.7467 164.706C76.4981 164.619 77.1079 164.548 77.5762 164.494C78.0445 164.434 78.3848 164.339 78.5972 164.208C78.8095 164.077 78.9157 163.865 78.9157 163.571V163.514C78.9157 162.801 78.7142 162.248 78.3113 161.856C77.9138 161.464 77.3203 161.268 76.5308 161.268C75.7086 161.268 75.0606 161.45 74.5869 161.815C74.1186 162.174 73.7946 162.575 73.6149 163.016L71.3198 162.493C71.5921 161.731 71.9896 161.115 72.5123 160.647C73.0405 160.173 73.6476 159.83 74.3337 159.618C75.0198 159.4 75.7412 159.291 76.4981 159.291C76.999 159.291 77.5299 159.351 78.0908 159.471C78.6571 159.585 79.1852 159.798 79.6753 160.108C80.1708 160.418 80.5765 160.862 80.8923 161.439C81.2081 162.011 81.366 162.754 81.366 163.669V172H78.981V170.285H78.883C78.7251 170.601 78.4883 170.911 78.1725 171.216C77.8566 171.521 77.451 171.774 76.9555 171.975C76.46 172.177 75.8665 172.278 75.1749 172.278ZM75.7058 170.317C76.381 170.317 76.9582 170.184 77.4374 169.917C77.922 169.65 78.2895 169.302 78.54 168.872C78.7959 168.436 78.9239 167.971 78.9239 167.475V165.858C78.8368 165.945 78.668 166.027 78.4175 166.103C78.1725 166.174 77.892 166.236 77.5762 166.291C77.2604 166.34 76.9528 166.386 76.6533 166.43C76.3538 166.468 76.1033 166.5 75.9019 166.528C75.4281 166.588 74.9953 166.688 74.6032 166.83C74.2166 166.971 73.9062 167.176 73.6721 167.442C73.4434 167.704 73.3291 168.052 73.3291 168.488C73.3291 169.092 73.5523 169.55 73.9988 169.86C74.4453 170.165 75.0143 170.317 75.7058 170.317ZM75.6732 157.78L73.1494 154.015H75.7222L77.6252 157.78H75.6732ZM89.9032 172.253C88.7271 172.253 87.7007 171.984 86.824 171.445C85.9473 170.906 85.2667 170.151 84.7821 169.182C84.2975 168.213 84.0552 167.08 84.0552 165.784C84.0552 164.483 84.2975 163.345 84.7821 162.37C85.2667 161.396 85.9473 160.639 86.824 160.1C87.7007 159.561 88.7271 159.291 89.9032 159.291C91.0793 159.291 92.1057 159.561 92.9824 160.1C93.859 160.639 94.5397 161.396 95.0243 162.37C95.5089 163.345 95.7512 164.483 95.7512 165.784C95.7512 167.08 95.5089 168.213 95.0243 169.182C94.5397 170.151 93.859 170.906 92.9824 171.445C92.1057 171.984 91.0793 172.253 89.9032 172.253ZM89.9114 170.203C90.6737 170.203 91.3053 170.002 91.8062 169.599C92.3072 169.196 92.6775 168.659 92.917 167.99C93.1621 167.32 93.2846 166.582 93.2846 165.776C93.2846 164.976 93.1621 164.241 92.917 163.571C92.6775 162.896 92.3072 162.354 91.8062 161.946C91.3053 161.537 90.6737 161.333 89.9114 161.333C89.1436 161.333 88.5065 161.537 88.0001 161.946C87.4992 162.354 87.1262 162.896 86.8812 163.571C86.6416 164.241 86.5218 164.976 86.5218 165.776C86.5218 166.582 86.6416 167.32 86.8812 167.99C87.1262 168.659 87.4992 169.196 88.0001 169.599C88.5065 170.002 89.1436 170.203 89.9114 170.203ZM104.564 172V159.455H106.908V161.496H107.063C107.325 160.805 107.752 160.266 108.346 159.879C108.939 159.487 109.65 159.291 110.477 159.291C111.316 159.291 112.018 159.487 112.585 159.879C113.156 160.271 113.578 160.81 113.851 161.496H113.981C114.281 160.827 114.757 160.293 115.411 159.896C116.064 159.493 116.843 159.291 117.747 159.291C118.885 159.291 119.813 159.648 120.532 160.361C121.256 161.074 121.618 162.15 121.618 163.587V172H119.176V163.816C119.176 162.967 118.944 162.351 118.482 161.97C118.019 161.589 117.466 161.398 116.824 161.398C116.029 161.398 115.411 161.643 114.97 162.134C114.529 162.618 114.308 163.242 114.308 164.004V172H111.874V163.661C111.874 162.98 111.662 162.433 111.237 162.019C110.812 161.605 110.26 161.398 109.579 161.398C109.116 161.398 108.689 161.521 108.297 161.766C107.91 162.006 107.597 162.34 107.357 162.771C107.123 163.201 107.006 163.699 107.006 164.265V172H104.564ZM136.849 158.85H138.654C138.648 159.721 138.526 160.451 138.286 161.039C138.052 161.622 137.644 162.06 137.061 162.354C136.478 162.648 135.67 162.795 134.635 162.795V161.382C135.338 161.382 135.841 161.295 136.146 161.121C136.457 160.941 136.65 160.666 136.726 160.296C136.808 159.92 136.849 159.438 136.849 158.85ZM132.871 166.797V159.455H135.313V172H132.912V169.827H132.781C132.493 170.497 132.032 171.055 131.401 171.502C130.769 171.943 129.98 172.163 129.032 172.163C128.232 172.163 127.521 171.986 126.9 171.632C126.28 171.273 125.792 170.742 125.438 170.04C125.09 169.337 124.916 168.469 124.916 167.434V159.455H127.358V167.14C127.358 167.995 127.595 168.676 128.068 169.182C128.548 169.689 129.163 169.942 129.914 169.942C130.372 169.942 130.826 169.827 131.278 169.599C131.736 169.37 132.114 169.024 132.414 168.561C132.718 168.099 132.871 167.511 132.871 166.797ZM129.179 157.78L126.655 154.015H129.228L131.131 157.78H129.179ZM142.315 164.551V172H139.873V159.455H142.217V161.496H142.372C142.661 160.832 143.112 160.299 143.728 159.896C144.348 159.493 145.13 159.291 146.072 159.291C146.927 159.291 147.675 159.471 148.318 159.83C148.96 160.184 149.459 160.712 149.813 161.415C150.167 162.117 150.344 162.986 150.344 164.02V172H147.901V164.314C147.901 163.405 147.665 162.694 147.191 162.183C146.717 161.665 146.066 161.407 145.239 161.407C144.672 161.407 144.169 161.529 143.728 161.774C143.292 162.019 142.946 162.379 142.69 162.852C142.44 163.321 142.315 163.887 142.315 164.551ZM158.879 176.966C157.882 176.966 157.025 176.835 156.306 176.574C155.593 176.313 155.01 175.967 154.558 175.537C154.106 175.106 153.768 174.635 153.545 174.124L155.644 173.258C155.791 173.497 155.987 173.751 156.232 174.017C156.483 174.29 156.82 174.521 157.245 174.712C157.675 174.902 158.228 174.998 158.903 174.998C159.829 174.998 160.594 174.772 161.198 174.32C161.803 173.873 162.105 173.16 162.105 172.18V169.713H161.95C161.803 169.98 161.59 170.277 161.313 170.603C161.04 170.93 160.665 171.213 160.186 171.453C159.706 171.692 159.083 171.812 158.315 171.812C157.324 171.812 156.431 171.581 155.636 171.118C154.847 170.65 154.22 169.961 153.758 169.051C153.3 168.137 153.072 167.012 153.072 165.678C153.072 164.344 153.297 163.201 153.749 162.248C154.207 161.295 154.833 160.565 155.628 160.059C156.423 159.547 157.324 159.291 158.331 159.291C159.11 159.291 159.739 159.422 160.218 159.683C160.697 159.939 161.07 160.239 161.337 160.582C161.609 160.925 161.819 161.227 161.966 161.488H162.146V159.455H164.539V172.278C164.539 173.356 164.288 174.241 163.787 174.932C163.286 175.624 162.609 176.136 161.754 176.468C160.904 176.8 159.946 176.966 158.879 176.966ZM158.854 169.787C159.557 169.787 160.15 169.623 160.635 169.297C161.125 168.964 161.495 168.491 161.746 167.875C162.001 167.255 162.129 166.511 162.129 165.646C162.129 164.802 162.004 164.058 161.754 163.416C161.503 162.773 161.136 162.272 160.651 161.913C160.166 161.548 159.567 161.366 158.854 161.366C158.119 161.366 157.507 161.556 157.016 161.938C156.526 162.313 156.156 162.825 155.906 163.473C155.661 164.121 155.538 164.845 155.538 165.646C155.538 166.468 155.663 167.189 155.914 167.81C156.164 168.431 156.535 168.915 157.025 169.264C157.52 169.612 158.13 169.787 158.854 169.787ZM174.097 172V155.273H176.539V161.488H176.686C176.828 161.227 177.032 160.925 177.299 160.582C177.566 160.239 177.936 159.939 178.409 159.683C178.883 159.422 179.509 159.291 180.288 159.291C181.301 159.291 182.205 159.547 183 160.059C183.795 160.571 184.418 161.309 184.87 162.272C185.327 163.236 185.556 164.396 185.556 165.752C185.556 167.108 185.33 168.27 184.878 169.239C184.426 170.203 183.806 170.946 183.016 171.469C182.226 171.986 181.325 172.245 180.313 172.245C179.55 172.245 178.927 172.117 178.442 171.861C177.963 171.605 177.587 171.306 177.315 170.963C177.043 170.62 176.833 170.315 176.686 170.048H176.482V172H174.097ZM176.49 165.727C176.49 166.609 176.618 167.383 176.874 168.047C177.13 168.711 177.5 169.231 177.985 169.607C178.469 169.977 179.063 170.162 179.765 170.162C180.495 170.162 181.105 169.969 181.595 169.582C182.085 169.19 182.455 168.659 182.706 167.99C182.962 167.32 183.09 166.566 183.09 165.727C183.09 164.9 182.964 164.156 182.714 163.498C182.469 162.839 182.099 162.319 181.603 161.938C181.113 161.556 180.5 161.366 179.765 161.366C179.057 161.366 178.458 161.548 177.968 161.913C177.484 162.278 177.116 162.787 176.866 163.44C176.615 164.094 176.49 164.856 176.49 165.727ZM191.949 172.278C191.154 172.278 190.436 172.131 189.793 171.837C189.151 171.537 188.641 171.104 188.266 170.538C187.895 169.972 187.71 169.277 187.71 168.455C187.71 167.747 187.846 167.165 188.119 166.707C188.391 166.25 188.759 165.888 189.221 165.621C189.684 165.354 190.201 165.153 190.773 165.017C191.345 164.881 191.928 164.777 192.521 164.706C193.273 164.619 193.882 164.548 194.351 164.494C194.819 164.434 195.159 164.339 195.372 164.208C195.584 164.077 195.69 163.865 195.69 163.571V163.514C195.69 162.801 195.489 162.248 195.086 161.856C194.688 161.464 194.095 161.268 193.305 161.268C192.483 161.268 191.835 161.45 191.361 161.815C190.893 162.174 190.569 162.575 190.389 163.016L188.094 162.493C188.366 161.731 188.764 161.115 189.287 160.647C189.815 160.173 190.422 159.83 191.108 159.618C191.794 159.4 192.516 159.291 193.273 159.291C193.773 159.291 194.304 159.351 194.865 159.471C195.431 159.585 195.96 159.798 196.45 160.108C196.945 160.418 197.351 160.862 197.667 161.439C197.982 162.011 198.14 162.754 198.14 163.669V172H195.755V170.285H195.657C195.5 170.601 195.263 170.911 194.947 171.216C194.631 171.521 194.225 171.774 193.73 171.975C193.234 172.177 192.641 172.278 191.949 172.278ZM192.48 170.317C193.155 170.317 193.733 170.184 194.212 169.917C194.696 169.65 195.064 169.302 195.314 168.872C195.57 168.436 195.698 167.971 195.698 167.475V165.858C195.611 165.945 195.442 166.027 195.192 166.103C194.947 166.174 194.666 166.236 194.351 166.291C194.035 166.34 193.727 166.386 193.428 166.43C193.128 166.468 192.878 166.5 192.676 166.528C192.203 166.588 191.77 166.688 191.378 166.83C190.991 166.971 190.681 167.176 190.447 167.442C190.218 167.704 190.103 168.052 190.103 168.488C190.103 169.092 190.327 169.55 190.773 169.86C191.22 170.165 191.789 170.317 192.48 170.317ZM193.289 176.329C192.87 176.329 192.507 176.187 192.203 175.904C191.898 175.621 191.745 175.278 191.745 174.875C191.745 174.472 191.898 174.129 192.203 173.846C192.507 173.563 192.87 173.421 193.289 173.421C193.714 173.421 194.076 173.563 194.375 173.846C194.68 174.129 194.833 174.472 194.833 174.875C194.833 175.278 194.68 175.621 194.375 175.904C194.076 176.187 193.714 176.329 193.289 176.329ZM203.835 164.551V172H201.393V159.455H203.737V161.496H203.892C204.181 160.832 204.633 160.299 205.248 159.896C205.869 159.493 206.65 159.291 207.592 159.291C208.447 159.291 209.196 159.471 209.838 159.83C210.481 160.184 210.979 160.712 211.333 161.415C211.687 162.117 211.864 162.986 211.864 164.02V172H209.422V164.314C209.422 163.405 209.185 162.694 208.711 162.183C208.238 161.665 207.587 161.407 206.759 161.407C206.193 161.407 205.689 161.529 205.248 161.774C204.813 162.019 204.467 162.379 204.211 162.852C203.961 163.321 203.835 163.887 203.835 164.551ZM225.923 172.245C224.91 172.245 224.006 171.986 223.211 171.469C222.421 170.946 221.801 170.203 221.349 169.239C220.902 168.27 220.679 167.108 220.679 165.752C220.679 164.396 220.905 163.236 221.357 162.272C221.814 161.309 222.44 160.571 223.235 160.059C224.03 159.547 224.932 159.291 225.939 159.291C226.718 159.291 227.344 159.422 227.817 159.683C228.297 159.939 228.667 160.239 228.928 160.582C229.195 160.925 229.402 161.227 229.549 161.488H229.696V155.273H232.138V172H229.753V170.048H229.549C229.402 170.315 229.19 170.62 228.912 170.963C228.64 171.306 228.264 171.605 227.785 171.861C227.306 172.117 226.685 172.245 225.923 172.245ZM226.462 170.162C227.164 170.162 227.758 169.977 228.242 169.607C228.732 169.231 229.102 168.711 229.353 168.047C229.609 167.383 229.737 166.609 229.737 165.727C229.737 164.856 229.612 164.094 229.361 163.44C229.111 162.787 228.743 162.278 228.258 161.913C227.774 161.548 227.175 161.366 226.462 161.366C225.727 161.366 225.114 161.556 224.624 161.938C224.134 162.319 223.764 162.839 223.513 163.498C223.268 164.156 223.146 164.9 223.146 165.727C223.146 166.566 223.271 167.32 223.521 167.99C223.772 168.659 224.142 169.19 224.632 169.582C225.128 169.969 225.737 170.162 226.462 170.162ZM226.306 158.45V156.759H233.812V158.45H226.306ZM239.275 172.278C238.48 172.278 237.761 172.131 237.118 171.837C236.476 171.537 235.967 171.104 235.591 170.538C235.221 169.972 235.036 169.277 235.036 168.455C235.036 167.747 235.172 167.165 235.444 166.707C235.716 166.25 236.084 165.888 236.547 165.621C237.009 165.354 237.527 165.153 238.098 165.017C238.67 164.881 239.253 164.777 239.846 164.706C240.598 164.619 241.208 164.548 241.676 164.494C242.144 164.434 242.484 164.339 242.697 164.208C242.909 164.077 243.015 163.865 243.015 163.571V163.514C243.015 162.801 242.814 162.248 242.411 161.856C242.013 161.464 241.42 161.268 240.63 161.268C239.808 161.268 239.16 161.45 238.686 161.815C238.218 162.174 237.894 162.575 237.715 163.016L235.419 162.493C235.692 161.731 236.089 161.115 236.612 160.647C237.14 160.173 237.747 159.83 238.433 159.618C239.119 159.4 239.841 159.291 240.598 159.291C241.099 159.291 241.63 159.351 242.19 159.471C242.757 159.585 243.285 159.798 243.775 160.108C244.27 160.418 244.676 160.862 244.992 161.439C245.308 162.011 245.466 162.754 245.466 163.669V172H243.081V170.285H242.983C242.825 170.601 242.588 170.911 242.272 171.216C241.956 171.521 241.551 171.774 241.055 171.975C240.56 172.177 239.966 172.278 239.275 172.278ZM239.805 170.317C240.481 170.317 241.058 170.184 241.537 169.917C242.022 169.65 242.389 169.302 242.64 168.872C242.896 168.436 243.023 167.971 243.023 167.475V165.858C242.936 165.945 242.768 166.027 242.517 166.103C242.272 166.174 241.992 166.236 241.676 166.291C241.36 166.34 241.052 166.386 240.753 166.43C240.453 166.468 240.203 166.5 240.001 166.528C239.528 166.588 239.095 166.688 238.703 166.83C238.316 166.971 238.006 167.176 237.772 167.442C237.543 167.704 237.429 168.052 237.429 168.488C237.429 169.092 237.652 169.55 238.098 169.86C238.545 170.165 239.114 170.317 239.805 170.317ZM238.27 157.935L236.628 157.886C236.628 156.982 236.871 156.261 237.355 155.722C237.845 155.183 238.45 154.913 239.168 154.913C239.501 154.913 239.792 154.971 240.042 155.085C240.293 155.194 240.527 155.322 240.745 155.469C240.968 155.61 241.188 155.738 241.406 155.853C241.63 155.962 241.877 156.016 242.15 156.016C242.465 156.016 242.721 155.896 242.917 155.657C243.119 155.417 243.22 155.12 243.22 154.766L244.829 154.873C244.829 155.782 244.583 156.498 244.093 157.021C243.603 157.538 243.002 157.799 242.288 157.805C241.902 157.805 241.581 157.75 241.325 157.641C241.074 157.527 240.851 157.399 240.655 157.257C240.459 157.11 240.257 156.98 240.05 156.865C239.844 156.751 239.596 156.694 239.307 156.694C239.002 156.694 238.752 156.814 238.556 157.053C238.365 157.287 238.27 157.581 238.27 157.935ZM264.206 162.517L261.993 162.909C261.9 162.626 261.753 162.357 261.552 162.101C261.356 161.845 261.089 161.635 260.751 161.472C260.414 161.309 259.992 161.227 259.485 161.227C258.794 161.227 258.217 161.382 257.754 161.692C257.291 161.997 257.06 162.392 257.06 162.877C257.06 163.296 257.215 163.634 257.525 163.89C257.835 164.145 258.336 164.355 259.028 164.518L261.021 164.976C262.175 165.243 263.035 165.654 263.602 166.209C264.168 166.765 264.451 167.486 264.451 168.374C264.451 169.125 264.233 169.795 263.798 170.383C263.368 170.965 262.766 171.423 261.993 171.755C261.225 172.087 260.335 172.253 259.322 172.253C257.917 172.253 256.771 171.954 255.883 171.355C254.996 170.75 254.451 169.893 254.25 168.782L256.61 168.423C256.757 169.038 257.06 169.503 257.517 169.819C257.974 170.13 258.571 170.285 259.306 170.285C260.106 170.285 260.746 170.119 261.225 169.787C261.704 169.449 261.944 169.038 261.944 168.553C261.944 168.161 261.797 167.832 261.503 167.565C261.214 167.298 260.77 167.097 260.171 166.961L258.048 166.495C256.877 166.228 256.011 165.804 255.451 165.221C254.895 164.638 254.617 163.9 254.617 163.007C254.617 162.267 254.824 161.619 255.238 161.064C255.652 160.508 256.224 160.075 256.953 159.765C257.683 159.449 258.519 159.291 259.461 159.291C260.817 159.291 261.884 159.585 262.663 160.173C263.441 160.756 263.956 161.537 264.206 162.517ZM279.094 158.85H280.899C280.893 159.721 280.771 160.451 280.531 161.039C280.297 161.622 279.889 162.06 279.306 162.354C278.723 162.648 277.915 162.795 276.88 162.795V161.382C277.583 161.382 278.086 161.295 278.391 161.121C278.702 160.941 278.895 160.666 278.971 160.296C279.053 159.92 279.094 159.438 279.094 158.85ZM275.116 166.797V159.455H277.558V172H275.157V169.827H275.026C274.738 170.497 274.278 171.055 273.646 171.502C273.014 171.943 272.225 172.163 271.277 172.163C270.477 172.163 269.766 171.986 269.146 171.632C268.525 171.273 268.037 170.742 267.684 170.04C267.335 169.337 267.161 168.469 267.161 167.434V159.455H269.603V167.14C269.603 167.995 269.84 168.676 270.314 169.182C270.793 169.689 271.408 169.942 272.159 169.942C272.617 169.942 273.071 169.827 273.523 169.599C273.981 169.37 274.359 169.024 274.659 168.561C274.964 168.099 275.116 167.511 275.116 166.797ZM273.368 157.723H271.441L271.375 156.057C271.952 156.03 272.361 155.953 272.6 155.828C272.84 155.697 272.957 155.51 272.952 155.265C272.957 154.971 272.791 154.761 272.453 154.636C272.121 154.51 271.716 154.448 271.236 154.448L271.31 153.1C272.546 153.1 273.483 153.296 274.12 153.688C274.762 154.08 275.081 154.608 275.075 155.273C275.081 155.812 274.904 156.209 274.544 156.465C274.19 156.716 273.798 156.874 273.368 156.939V157.723ZM292.901 172.245C291.888 172.245 290.984 171.986 290.189 171.469C289.4 170.946 288.779 170.203 288.327 169.239C287.881 168.27 287.657 167.108 287.657 165.752C287.657 164.396 287.883 163.236 288.335 162.272C288.793 161.309 289.419 160.571 290.214 160.059C291.009 159.547 291.91 159.291 292.917 159.291C293.696 159.291 294.322 159.422 294.796 159.683C295.275 159.939 295.645 160.239 295.907 160.582C296.174 160.925 296.38 161.227 296.527 161.488H296.674V155.273H299.117V172H296.732V170.048H296.527C296.38 170.315 296.168 170.62 295.89 170.963C295.618 171.306 295.242 171.605 294.763 171.861C294.284 172.117 293.663 172.245 292.901 172.245ZM293.44 170.162C294.143 170.162 294.736 169.977 295.221 169.607C295.711 169.231 296.081 168.711 296.331 168.047C296.587 167.383 296.715 166.609 296.715 165.727C296.715 164.856 296.59 164.094 296.34 163.44C296.089 162.787 295.722 162.278 295.237 161.913C294.752 161.548 294.153 161.366 293.44 161.366C292.705 161.366 292.092 161.556 291.602 161.938C291.112 162.319 290.742 162.839 290.492 163.498C290.247 164.156 290.124 164.9 290.124 165.727C290.124 166.566 290.249 167.32 290.5 167.99C290.75 168.659 291.121 169.19 291.611 169.582C292.106 169.969 292.716 170.162 293.44 170.162ZM310.549 166.797V159.455H313V172H310.598V169.827H310.468C310.179 170.497 309.716 171.055 309.079 171.502C308.447 171.943 307.661 172.163 306.719 172.163C305.913 172.163 305.199 171.986 304.579 171.632C303.963 171.273 303.479 170.742 303.125 170.04C302.776 169.337 302.602 168.469 302.602 167.434V159.455H305.044V167.14C305.044 167.995 305.281 168.676 305.755 169.182C306.229 169.689 306.844 169.942 307.601 169.942C308.058 169.942 308.513 169.827 308.965 169.599C309.422 169.37 309.801 169.024 310.1 168.561C310.405 168.099 310.555 167.511 310.549 166.797ZM307.985 176.329C307.565 176.329 307.203 176.187 306.898 175.904C306.593 175.621 306.441 175.278 306.441 174.875C306.441 174.472 306.593 174.129 306.898 173.846C307.203 173.563 307.565 173.421 307.985 173.421C308.409 173.421 308.771 173.563 309.071 173.846C309.376 174.129 309.528 174.472 309.528 174.875C309.528 175.278 309.376 175.621 309.071 175.904C308.771 176.187 308.409 176.329 307.985 176.329ZM318.723 164.551V172H316.281V159.455H318.625V161.496H318.78C319.069 160.832 319.521 160.299 320.136 159.896C320.757 159.493 321.538 159.291 322.48 159.291C323.335 159.291 324.084 159.471 324.726 159.83C325.369 160.184 325.867 160.712 326.221 161.415C326.575 162.117 326.752 162.986 326.752 164.02V172H324.31V164.314C324.31 163.405 324.073 162.694 323.599 162.183C323.125 161.665 322.475 161.407 321.647 161.407C321.081 161.407 320.577 161.529 320.136 161.774C319.7 162.019 319.355 162.379 319.099 162.852C318.848 163.321 318.723 163.887 318.723 164.551ZM335.287 176.966C334.29 176.966 333.433 176.835 332.714 176.574C332.001 176.313 331.418 175.967 330.966 175.537C330.514 175.106 330.177 174.635 329.953 174.124L332.053 173.258C332.2 173.497 332.396 173.751 332.641 174.017C332.891 174.29 333.229 174.521 333.653 174.712C334.084 174.902 334.636 174.998 335.311 174.998C336.237 174.998 337.002 174.772 337.606 174.32C338.211 173.873 338.513 173.16 338.513 172.18V169.713H338.358C338.211 169.98 337.999 170.277 337.721 170.603C337.449 170.93 337.073 171.213 336.594 171.453C336.115 171.692 335.491 171.812 334.723 171.812C333.732 171.812 332.839 171.581 332.044 171.118C331.255 170.65 330.629 169.961 330.166 169.051C329.708 168.137 329.48 167.012 329.48 165.678C329.48 164.344 329.706 163.201 330.158 162.248C330.615 161.295 331.241 160.565 332.036 160.059C332.831 159.547 333.732 159.291 334.74 159.291C335.518 159.291 336.147 159.422 336.626 159.683C337.106 159.939 337.479 160.239 337.745 160.582C338.018 160.925 338.227 161.227 338.374 161.488H338.554V159.455H340.947V172.278C340.947 173.356 340.697 174.241 340.196 174.932C339.695 175.624 339.017 176.136 338.162 176.468C337.312 176.8 336.354 176.966 335.287 176.966ZM335.262 169.787C335.965 169.787 336.558 169.623 337.043 169.297C337.533 168.964 337.903 168.491 338.154 167.875C338.41 167.255 338.538 166.511 338.538 165.646C338.538 164.802 338.412 164.058 338.162 163.416C337.911 162.773 337.544 162.272 337.059 161.913C336.575 161.548 335.976 161.366 335.262 161.366C334.527 161.366 333.915 161.556 333.425 161.938C332.935 162.313 332.564 162.825 332.314 163.473C332.069 164.121 331.946 164.845 331.946 165.646C331.946 166.468 332.072 167.189 332.322 167.81C332.573 168.431 332.943 168.915 333.433 169.264C333.928 169.612 334.538 169.787 335.262 169.787ZM352.751 164.551V172H350.309V155.273H352.719V161.496H352.874C353.168 160.821 353.617 160.285 354.221 159.887C354.826 159.49 355.615 159.291 356.59 159.291C357.45 159.291 358.202 159.468 358.844 159.822C359.492 160.176 359.993 160.704 360.347 161.407C360.707 162.104 360.886 162.975 360.886 164.02V172H358.444V164.314C358.444 163.394 358.207 162.681 357.734 162.174C357.26 161.663 356.601 161.407 355.757 161.407C355.18 161.407 354.663 161.529 354.205 161.774C353.753 162.019 353.397 162.379 353.135 162.852C352.879 163.321 352.751 163.887 352.751 164.551ZM369.552 172.253C368.316 172.253 367.252 171.989 366.359 171.461C365.471 170.927 364.785 170.179 364.3 169.215C363.821 168.246 363.582 167.11 363.582 165.809C363.582 164.524 363.821 163.391 364.3 162.411C364.785 161.431 365.46 160.666 366.326 160.116C367.197 159.566 368.215 159.291 369.381 159.291C370.088 159.291 370.774 159.408 371.439 159.642C372.103 159.877 372.699 160.244 373.227 160.745C373.756 161.246 374.172 161.897 374.477 162.697C374.782 163.492 374.935 164.459 374.935 165.597V166.462H364.962V164.633H372.541C372.541 163.99 372.411 163.421 372.149 162.926C371.888 162.425 371.52 162.03 371.047 161.741C370.578 161.453 370.029 161.309 369.397 161.309C368.711 161.309 368.112 161.477 367.6 161.815C367.094 162.147 366.702 162.583 366.424 163.122C366.152 163.655 366.015 164.235 366.015 164.862V166.291C366.015 167.129 366.163 167.843 366.457 168.431C366.756 169.019 367.173 169.468 367.706 169.778C368.24 170.083 368.863 170.236 369.577 170.236C370.039 170.236 370.461 170.17 370.843 170.04C371.224 169.904 371.553 169.702 371.831 169.435C372.109 169.169 372.321 168.839 372.468 168.447L374.779 168.864C374.594 169.544 374.262 170.141 373.783 170.652C373.309 171.159 372.713 171.554 371.994 171.837C371.281 172.114 370.467 172.253 369.552 172.253ZM370.965 157.952L369.291 155.763L367.608 157.952H365.403V157.829L368.27 154.366H370.303L373.178 157.829V157.952H370.965ZM369.283 176.329C368.863 176.329 368.501 176.187 368.196 175.904C367.891 175.621 367.739 175.278 367.739 174.875C367.739 174.472 367.891 174.129 368.196 173.846C368.501 173.563 368.863 173.421 369.283 173.421C369.707 173.421 370.069 173.563 370.369 173.846C370.674 174.129 370.826 174.472 370.826 174.875C370.826 175.278 370.674 175.621 370.369 175.904C370.069 176.187 369.707 176.329 369.283 176.329ZM389.587 159.455V161.415H382.735V159.455H389.587ZM384.572 156.449H387.014V168.316C387.014 168.79 387.085 169.147 387.227 169.386C387.368 169.621 387.551 169.781 387.774 169.868C388.003 169.95 388.25 169.991 388.517 169.991C388.713 169.991 388.885 169.977 389.032 169.95C389.179 169.923 389.293 169.901 389.375 169.885L389.816 171.902C389.674 171.956 389.473 172.011 389.212 172.065C388.95 172.125 388.623 172.158 388.231 172.163C387.589 172.174 386.99 172.06 386.435 171.82C385.879 171.581 385.43 171.21 385.087 170.71C384.744 170.209 384.572 169.58 384.572 168.823V156.449ZM395 164.551V172H392.558V155.273H394.968V161.496H395.123C395.417 160.821 395.866 160.285 396.47 159.887C397.075 159.49 397.864 159.291 398.839 159.291C399.699 159.291 400.451 159.468 401.093 159.822C401.741 160.176 402.242 160.704 402.596 161.407C402.956 162.104 403.135 162.975 403.135 164.02V172H400.693V164.314C400.693 163.394 400.456 162.681 399.983 162.174C399.509 161.663 398.85 161.407 398.006 161.407C397.429 161.407 396.912 161.529 396.454 161.774C396.002 162.019 395.646 162.379 395.384 162.852C395.128 163.321 395 163.887 395 164.551ZM411.679 172.253C410.502 172.253 409.476 171.984 408.599 171.445C407.723 170.906 407.042 170.151 406.557 169.182C406.073 168.213 405.831 167.08 405.831 165.784C405.831 164.483 406.073 163.345 406.557 162.37C407.042 161.396 407.723 160.639 408.599 160.1C409.476 159.561 410.502 159.291 411.679 159.291C412.855 159.291 413.881 159.561 414.758 160.1C415.634 160.639 416.315 161.396 416.8 162.37C417.284 163.345 417.527 164.483 417.527 165.784C417.527 167.08 417.284 168.213 416.8 169.182C416.315 170.151 415.634 170.906 414.758 171.445C413.881 171.984 412.855 172.253 411.679 172.253ZM411.687 170.203C412.449 170.203 413.081 170.002 413.582 169.599C414.083 169.196 414.453 168.659 414.692 167.99C414.937 167.32 415.06 166.582 415.06 165.776C415.06 164.976 414.937 164.241 414.692 163.571C414.453 162.896 414.083 162.354 413.582 161.946C413.081 161.537 412.449 161.333 411.687 161.333C410.919 161.333 410.282 161.537 409.776 161.946C409.275 162.354 408.902 162.896 408.657 163.571C408.417 164.241 408.297 164.976 408.297 165.776C408.297 166.582 408.417 167.32 408.657 167.99C408.902 168.659 409.275 169.196 409.776 169.599C410.282 170.002 410.919 170.203 411.687 170.203ZM407.456 157.952L410.772 155.118H412.593L415.918 157.952H413.516L411.703 156.335L409.874 157.952H407.456ZM415.044 156.138L416.751 153.157H419.242L416.832 156.138H415.044ZM422.695 164.551V172H420.253V159.455H422.597V161.496H422.752C423.04 160.832 423.492 160.299 424.108 159.896C424.728 159.493 425.51 159.291 426.452 159.291C427.307 159.291 428.055 159.471 428.698 159.83C429.34 160.184 429.839 160.712 430.193 161.415C430.546 162.117 430.723 162.986 430.723 164.02V172H428.281V164.314C428.281 163.405 428.044 162.694 427.571 162.183C427.097 161.665 426.446 161.407 425.619 161.407C425.052 161.407 424.549 161.529 424.108 161.774C423.672 162.019 423.326 162.379 423.07 162.852C422.82 163.321 422.695 163.887 422.695 164.551ZM439.259 176.966C438.262 176.966 437.405 176.835 436.686 176.574C435.972 176.313 435.39 175.967 434.938 175.537C434.486 175.106 434.148 174.635 433.925 174.124L436.024 173.258C436.171 173.497 436.367 173.751 436.612 174.017C436.863 174.29 437.2 174.521 437.625 174.712C438.055 174.902 438.608 174.998 439.283 174.998C440.209 174.998 440.974 174.772 441.578 174.32C442.183 173.873 442.485 173.16 442.485 172.18V169.713H442.33C442.183 169.98 441.97 170.277 441.693 170.603C441.42 170.93 441.045 171.213 440.565 171.453C440.086 171.692 439.463 171.812 438.695 171.812C437.704 171.812 436.811 171.581 436.016 171.118C435.226 170.65 434.6 169.961 434.137 169.051C433.68 168.137 433.451 167.012 433.451 165.678C433.451 164.344 433.677 163.201 434.129 162.248C434.587 161.295 435.213 160.565 436.008 160.059C436.803 159.547 437.704 159.291 438.711 159.291C439.49 159.291 440.119 159.422 440.598 159.683C441.077 159.939 441.45 160.239 441.717 160.582C441.989 160.925 442.199 161.227 442.346 161.488H442.526V159.455H444.919V172.278C444.919 173.356 444.668 174.241 444.167 174.932C443.666 175.624 442.988 176.136 442.134 176.468C441.284 176.8 440.326 176.966 439.259 176.966ZM439.234 169.787C439.936 169.787 440.53 169.623 441.015 169.297C441.505 168.964 441.875 168.491 442.125 167.875C442.381 167.255 442.509 166.511 442.509 165.646C442.509 164.802 442.384 164.058 442.134 163.416C441.883 162.773 441.516 162.272 441.031 161.913C440.546 161.548 439.947 161.366 439.234 161.366C438.499 161.366 437.886 161.556 437.396 161.938C436.906 162.313 436.536 162.825 436.286 163.473C436.041 164.121 435.918 164.845 435.918 165.646C435.918 166.468 436.043 167.189 436.294 167.81C436.544 168.431 436.914 168.915 437.405 169.264C437.9 169.612 438.51 169.787 439.234 169.787ZM462.228 166.797V159.455H464.678V172H462.277V169.827H462.146C461.858 170.497 461.395 171.055 460.758 171.502C460.126 171.943 459.339 172.163 458.397 172.163C457.591 172.163 456.878 171.986 456.257 171.632C455.642 171.273 455.158 170.742 454.804 170.04C454.455 169.337 454.281 168.469 454.281 167.434V159.455H456.723V167.14C456.723 167.995 456.96 168.676 457.434 169.182C457.907 169.689 458.523 169.942 459.279 169.942C459.737 169.942 460.191 169.827 460.643 169.599C461.101 169.37 461.479 169.024 461.779 168.561C462.084 168.099 462.233 167.511 462.228 166.797ZM460.488 157.723H458.561L458.495 156.057C459.073 156.03 459.481 155.953 459.72 155.828C459.96 155.697 460.077 155.51 460.072 155.265C460.077 154.971 459.911 154.761 459.573 154.636C459.241 154.51 458.836 154.448 458.356 154.448L458.43 153.1C459.666 153.1 460.603 153.296 461.24 153.688C461.882 154.08 462.201 154.608 462.195 155.273C462.201 155.812 462.024 156.209 461.664 156.465C461.31 156.716 460.918 156.874 460.488 156.939V157.723ZM471.61 172.278C470.816 172.278 470.097 172.131 469.454 171.837C468.812 171.537 468.303 171.104 467.927 170.538C467.557 169.972 467.371 169.277 467.371 168.455C467.371 167.747 467.508 167.165 467.78 166.707C468.052 166.25 468.42 165.888 468.883 165.621C469.345 165.354 469.863 165.153 470.434 165.017C471.006 164.881 471.589 164.777 472.182 164.706C472.934 164.619 473.543 164.548 474.012 164.494C474.48 164.434 474.82 164.339 475.033 164.208C475.245 164.077 475.351 163.865 475.351 163.571V163.514C475.351 162.801 475.15 162.248 474.747 161.856C474.349 161.464 473.756 161.268 472.966 161.268C472.144 161.268 471.496 161.45 471.022 161.815C470.554 162.174 470.23 162.575 470.05 163.016L467.755 162.493C468.028 161.731 468.425 161.115 468.948 160.647C469.476 160.173 470.083 159.83 470.769 159.618C471.455 159.4 472.177 159.291 472.934 159.291C473.435 159.291 473.965 159.351 474.526 159.471C475.093 159.585 475.621 159.798 476.111 160.108C476.606 160.418 477.012 160.862 477.328 161.439C477.644 162.011 477.802 162.754 477.802 163.669V172H475.417V170.285H475.319C475.161 170.601 474.924 170.911 474.608 171.216C474.292 171.521 473.887 171.774 473.391 171.975C472.896 172.177 472.302 172.278 471.61 172.278ZM472.141 170.317C472.817 170.317 473.394 170.184 473.873 169.917C474.358 169.65 474.725 169.302 474.976 168.872C475.231 168.436 475.359 167.971 475.359 167.475V165.858C475.272 165.945 475.104 166.027 474.853 166.103C474.608 166.174 474.328 166.236 474.012 166.291C473.696 166.34 473.388 166.386 473.089 166.43C472.789 166.468 472.539 166.5 472.337 166.528C471.864 166.588 471.431 166.688 471.039 166.83C470.652 166.971 470.342 167.176 470.108 167.442C469.879 167.704 469.765 168.052 469.765 168.488C469.765 169.092 469.988 169.55 470.434 169.86C470.881 170.165 471.45 170.317 472.141 170.317ZM489.583 164.551V172H487.141V159.455H489.485V161.496H489.64C489.929 160.832 490.381 160.299 490.996 159.896C491.617 159.493 492.398 159.291 493.34 159.291C494.195 159.291 494.944 159.471 495.587 159.83C496.229 160.184 496.727 160.712 497.081 161.415C497.435 162.117 497.612 162.986 497.612 164.02V172H495.17V164.314C495.17 163.405 494.933 162.694 494.459 162.183C493.986 161.665 493.335 161.407 492.507 161.407C491.941 161.407 491.437 161.529 490.996 161.774C490.561 162.019 490.215 162.379 489.959 162.852C489.709 163.321 489.583 163.887 489.583 164.551ZM506.172 172.253C504.996 172.253 503.969 171.984 503.093 171.445C502.216 170.906 501.535 170.151 501.051 169.182C500.566 168.213 500.324 167.08 500.324 165.784C500.324 164.483 500.566 163.345 501.051 162.37C501.535 161.396 502.216 160.639 503.093 160.1C503.969 159.561 504.996 159.291 506.172 159.291C507.348 159.291 508.374 159.561 509.251 160.1C510.128 160.639 510.808 161.396 511.293 162.37C511.777 163.345 512.02 164.483 512.02 165.784C512.02 167.08 511.777 168.213 511.293 169.182C510.808 170.151 510.128 170.906 509.251 171.445C508.374 171.984 507.348 172.253 506.172 172.253ZM506.18 170.203C506.942 170.203 507.574 170.002 508.075 169.599C508.576 169.196 508.946 168.659 509.186 167.99C509.431 167.32 509.553 166.582 509.553 165.776C509.553 164.976 509.431 164.241 509.186 163.571C508.946 162.896 508.576 162.354 508.075 161.946C507.574 161.537 506.942 161.333 506.18 161.333C505.412 161.333 504.775 161.537 504.269 161.946C503.768 162.354 503.395 162.896 503.15 163.571C502.91 164.241 502.79 164.976 502.79 165.776C502.79 166.582 502.91 167.32 503.15 167.99C503.395 168.659 503.768 169.196 504.269 169.599C504.775 170.002 505.412 170.203 506.18 170.203ZM505.167 157.78L507.078 154.015H509.651L507.119 157.78H505.167ZM514.746 172V159.455H517.188V172H514.746ZM515.979 157.519C515.554 157.519 515.189 157.377 514.885 157.094C514.585 156.806 514.435 156.462 514.435 156.065C514.435 155.662 514.585 155.319 514.885 155.036C515.189 154.747 515.554 154.603 515.979 154.603C516.404 154.603 516.766 154.747 517.065 155.036C517.37 155.319 517.523 155.662 517.523 156.065C517.523 156.462 517.37 156.806 517.065 157.094C516.766 157.377 516.404 157.519 515.979 157.519ZM531.82 176.966C530.824 176.966 529.966 176.835 529.247 176.574C528.534 176.313 527.951 175.967 527.499 175.537C527.047 175.106 526.71 174.635 526.487 174.124L528.586 173.258C528.733 173.497 528.929 173.751 529.174 174.017C529.424 174.29 529.762 174.521 530.187 174.712C530.617 174.902 531.169 174.998 531.845 174.998C532.77 174.998 533.535 174.772 534.14 174.32C534.744 173.873 535.046 173.16 535.046 172.18V169.713H534.891C534.744 169.98 534.532 170.277 534.254 170.603C533.982 170.93 533.606 171.213 533.127 171.453C532.648 171.692 532.024 171.812 531.257 171.812C530.266 171.812 529.373 171.581 528.578 171.118C527.788 170.65 527.162 169.961 526.699 169.051C526.242 168.137 526.013 167.012 526.013 165.678C526.013 164.344 526.239 163.201 526.691 162.248C527.148 161.295 527.774 160.565 528.569 160.059C529.364 159.547 530.266 159.291 531.273 159.291C532.052 159.291 532.68 159.422 533.16 159.683C533.639 159.939 534.012 160.239 534.279 160.582C534.551 160.925 534.76 161.227 534.907 161.488H535.087V159.455H537.48V172.278C537.48 173.356 537.23 174.241 536.729 174.932C536.228 175.624 535.55 176.136 534.695 176.468C533.846 176.8 532.887 176.966 531.82 176.966ZM531.796 169.787C532.498 169.787 533.092 169.623 533.576 169.297C534.066 168.964 534.436 168.491 534.687 167.875C534.943 167.255 535.071 166.511 535.071 165.646C535.071 164.802 534.946 164.058 534.695 163.416C534.445 162.773 534.077 162.272 533.592 161.913C533.108 161.548 532.509 161.366 531.796 161.366C531.061 161.366 530.448 161.556 529.958 161.938C529.468 162.313 529.098 162.825 528.847 163.473C528.602 164.121 528.48 164.845 528.48 165.646C528.48 166.468 528.605 167.189 528.855 167.81C529.106 168.431 529.476 168.915 529.966 169.264C530.462 169.612 531.071 169.787 531.796 169.787ZM540.755 172V159.455H543.198V172H540.755ZM541.041 157.78L538.518 154.015H541.09L542.993 157.78H541.041ZM557.83 176.966C556.833 176.966 555.976 176.835 555.257 176.574C554.544 176.313 553.961 175.967 553.509 175.537C553.057 175.106 552.72 174.635 552.496 174.124L554.595 173.258C554.742 173.497 554.939 173.751 555.184 174.017C555.434 174.29 555.772 174.521 556.196 174.712C556.626 174.902 557.179 174.998 557.854 174.998C558.78 174.998 559.545 174.772 560.149 174.32C560.754 173.873 561.056 173.16 561.056 172.18V169.713H560.901C560.754 169.98 560.542 170.277 560.264 170.603C559.992 170.93 559.616 171.213 559.137 171.453C558.658 171.692 558.034 171.812 557.266 171.812C556.275 171.812 555.382 171.581 554.587 171.118C553.798 170.65 553.172 169.961 552.709 169.051C552.251 168.137 552.023 167.012 552.023 165.678C552.023 164.344 552.249 163.201 552.701 162.248C553.158 161.295 553.784 160.565 554.579 160.059C555.374 159.547 556.275 159.291 557.283 159.291C558.061 159.291 558.69 159.422 559.169 159.683C559.649 159.939 560.021 160.239 560.288 160.582C560.561 160.925 560.77 161.227 560.917 161.488H561.097V159.455H563.49V172.278C563.49 173.356 563.24 174.241 562.739 174.932C562.238 175.624 561.56 176.136 560.705 176.468C559.855 176.8 558.897 176.966 557.83 176.966ZM557.805 169.787C558.508 169.787 559.101 169.623 559.586 169.297C560.076 168.964 560.446 168.491 560.697 167.875C560.953 167.255 561.081 166.511 561.081 165.646C561.081 164.802 560.955 164.058 560.705 163.416C560.454 162.773 560.087 162.272 559.602 161.913C559.118 161.548 558.519 161.366 557.805 161.366C557.07 161.366 556.458 161.556 555.968 161.938C555.478 162.313 555.107 162.825 554.857 163.473C554.612 164.121 554.489 164.845 554.489 165.646C554.489 166.468 554.615 167.189 554.865 167.81C555.115 168.431 555.486 168.915 555.976 169.264C556.471 169.612 557.081 169.787 557.805 169.787ZM566.765 172V159.455H569.207V172H566.765ZM567.999 157.519C567.574 157.519 567.209 157.377 566.904 157.094C566.605 156.806 566.455 156.462 566.455 156.065C566.455 155.662 566.605 155.319 566.904 155.036C567.209 154.747 567.574 154.603 567.999 154.603C568.423 154.603 568.785 154.747 569.085 155.036C569.39 155.319 569.542 155.662 569.542 156.065C569.542 156.462 569.39 156.806 569.085 157.094C568.785 157.377 568.423 157.519 567.999 157.519ZM582.98 158.581H584.867C584.867 159.866 584.575 160.881 583.993 161.627C583.416 162.368 582.43 162.738 581.036 162.738V161.366C581.591 161.366 582.008 161.251 582.286 161.023C582.563 160.789 582.749 160.465 582.841 160.051C582.934 159.632 582.98 159.141 582.98 158.581ZM577.777 172.253C576.601 172.253 575.575 171.984 574.698 171.445C573.821 170.906 573.141 170.151 572.656 169.182C572.172 168.213 571.929 167.08 571.929 165.784C571.929 164.483 572.172 163.345 572.656 162.37C573.141 161.396 573.821 160.639 574.698 160.1C575.575 159.561 576.601 159.291 577.777 159.291C578.953 159.291 579.98 159.561 580.856 160.1C581.733 160.639 582.414 161.396 582.898 162.37C583.383 163.345 583.625 164.483 583.625 165.784C583.625 167.08 583.383 168.213 582.898 169.182C582.414 170.151 581.733 170.906 580.856 171.445C579.98 171.984 578.953 172.253 577.777 172.253ZM577.785 170.203C578.548 170.203 579.179 170.002 579.68 169.599C580.181 169.196 580.551 168.659 580.791 167.99C581.036 167.32 581.159 166.582 581.159 165.776C581.159 164.976 581.036 164.241 580.791 163.571C580.551 162.896 580.181 162.354 579.68 161.946C579.179 161.537 578.548 161.333 577.785 161.333C577.018 161.333 576.381 161.537 575.874 161.946C575.373 162.354 575 162.896 574.755 163.571C574.516 164.241 574.396 164.976 574.396 165.776C574.396 166.582 574.516 167.32 574.755 167.99C575 168.659 575.373 169.196 575.874 169.599C576.381 170.002 577.018 170.203 577.785 170.203ZM576.83 157.78L574.306 154.015H576.879L578.782 157.78H576.83Z" fill="white"/>
</g>
</g>
<g id="Frame">
<rect x="1261" y="107" width="210" height="40" rx="4" fill="#3A57E8" fill-opacity="0.35"/>
<g id="Iconly/Bulk/Voice 3">
<g id="Voice 2">
<path id="Fill 1" d="M1296.83 130.217H1297.17C1299.1 130.217 1300.73 128.985 1301.31 127.276C1301.39 127.028 1301.2 126.771 1300.93 126.771H1299.86C1299.51 126.771 1299.24 126.498 1299.24 126.16C1299.24 125.821 1299.51 125.547 1299.86 125.547H1300.9C1301.25 125.547 1301.53 125.27 1301.53 124.929C1301.53 124.587 1301.25 124.311 1300.9 124.311H1299.86C1299.51 124.311 1299.24 124.036 1299.24 123.698C1299.24 123.36 1299.51 123.085 1299.86 123.085H1300.9C1301.25 123.085 1301.53 122.809 1301.53 122.467C1301.53 122.126 1301.25 121.849 1300.9 121.849H1299.86C1299.51 121.849 1299.24 121.575 1299.24 121.236C1299.24 120.898 1299.51 120.624 1299.86 120.624H1300.99C1301.25 120.624 1301.43 120.379 1301.36 120.131C1300.85 118.324 1299.17 117 1297.17 117H1296.83C1294.42 117 1292.47 118.923 1292.47 121.297V125.92C1292.47 128.293 1294.42 130.217 1296.83 130.217Z" fill="white"/>
<path id="Fill 3" opacity="0.4" d="M1304.53 124.826C1304 124.826 1303.56 125.253 1303.56 125.782C1303.56 129.355 1300.62 132.263 1297 132.263C1293.38 132.263 1290.44 129.355 1290.44 125.782C1290.44 125.253 1290 124.826 1289.47 124.826C1288.93 124.826 1288.5 125.253 1288.5 125.782C1288.5 130.087 1291.8 133.641 1296.03 134.119V136.043C1296.03 136.571 1296.46 137 1297 137C1297.54 137 1297.97 136.571 1297.97 136.043V134.119C1302.2 133.641 1305.5 130.087 1305.5 125.782C1305.5 125.253 1305.07 124.826 1304.53 124.826Z" fill="white"/>
</g>
</g>
<path id="Announcments" d="M1327.25 132H1325.78L1330.05 120.364H1331.5L1335.78 132H1334.3L1330.82 122.205H1330.73L1327.25 132ZM1327.8 127.455H1333.75V128.705H1327.8V127.455ZM1338.75 126.75V132H1337.41V123.273H1338.7V124.636H1338.82C1339.02 124.193 1339.33 123.837 1339.75 123.568C1340.16 123.295 1340.7 123.159 1341.36 123.159C1341.95 123.159 1342.47 123.28 1342.91 123.523C1343.36 123.761 1343.7 124.125 1343.95 124.614C1344.19 125.098 1344.32 125.712 1344.32 126.455V132H1342.98V126.545C1342.98 125.86 1342.8 125.326 1342.44 124.943C1342.08 124.557 1341.6 124.364 1340.98 124.364C1340.55 124.364 1340.16 124.456 1339.83 124.642C1339.49 124.828 1339.23 125.098 1339.04 125.455C1338.84 125.811 1338.75 126.242 1338.75 126.75ZM1348.11 126.75V132H1346.77V123.273H1348.06V124.636H1348.18C1348.38 124.193 1348.69 123.837 1349.11 123.568C1349.52 123.295 1350.06 123.159 1350.72 123.159C1351.31 123.159 1351.83 123.28 1352.27 123.523C1352.72 123.761 1353.06 124.125 1353.31 124.614C1353.55 125.098 1353.68 125.712 1353.68 126.455V132H1352.33V126.545C1352.33 125.86 1352.16 125.326 1351.8 124.943C1351.44 124.557 1350.96 124.364 1350.33 124.364C1349.91 124.364 1349.52 124.456 1349.19 124.642C1348.85 124.828 1348.59 125.098 1348.4 125.455C1348.2 125.811 1348.11 126.242 1348.11 126.75ZM1359.67 132.182C1358.88 132.182 1358.19 131.994 1357.6 131.619C1357.01 131.244 1356.54 130.72 1356.21 130.045C1355.88 129.371 1355.72 128.583 1355.72 127.682C1355.72 126.773 1355.88 125.979 1356.21 125.301C1356.54 124.623 1357.01 124.097 1357.6 123.722C1358.19 123.347 1358.88 123.159 1359.67 123.159C1360.46 123.159 1361.15 123.347 1361.74 123.722C1362.33 124.097 1362.8 124.623 1363.13 125.301C1363.46 125.979 1363.63 126.773 1363.63 127.682C1363.63 128.583 1363.46 129.371 1363.13 130.045C1362.8 130.72 1362.33 131.244 1361.74 131.619C1361.15 131.994 1360.46 132.182 1359.67 132.182ZM1359.67 130.977C1360.27 130.977 1360.76 130.824 1361.15 130.517C1361.53 130.21 1361.82 129.807 1362.01 129.307C1362.19 128.807 1362.28 128.265 1362.28 127.682C1362.28 127.098 1362.19 126.555 1362.01 126.051C1361.82 125.547 1361.53 125.14 1361.15 124.83C1360.76 124.519 1360.27 124.364 1359.67 124.364C1359.07 124.364 1358.58 124.519 1358.19 124.83C1357.81 125.14 1357.52 125.547 1357.34 126.051C1357.15 126.555 1357.06 127.098 1357.06 127.682C1357.06 128.265 1357.15 128.807 1357.34 129.307C1357.52 129.807 1357.81 130.21 1358.19 130.517C1358.58 130.824 1359.07 130.977 1359.67 130.977ZM1371.17 128.432V123.273H1372.51V132H1371.17V130.523H1371.08C1370.88 130.966 1370.56 131.343 1370.13 131.653C1369.7 131.96 1369.15 132.114 1368.49 132.114C1367.95 132.114 1367.46 131.994 1367.04 131.756C1366.61 131.513 1366.28 131.15 1366.04 130.665C1365.79 130.176 1365.67 129.561 1365.67 128.818V123.273H1367.01V128.727C1367.01 129.364 1367.19 129.871 1367.55 130.25C1367.91 130.629 1368.37 130.818 1368.92 130.818C1369.26 130.818 1369.59 130.733 1369.94 130.562C1370.29 130.392 1370.58 130.131 1370.81 129.778C1371.05 129.426 1371.17 128.977 1371.17 128.432ZM1376.31 126.75V132H1374.97V123.273H1376.26V124.636H1376.38C1376.58 124.193 1376.89 123.837 1377.31 123.568C1377.73 123.295 1378.26 123.159 1378.92 123.159C1379.51 123.159 1380.03 123.28 1380.48 123.523C1380.92 123.761 1381.26 124.125 1381.51 124.614C1381.76 125.098 1381.88 125.712 1381.88 126.455V132H1380.54V126.545C1380.54 125.86 1380.36 125.326 1380 124.943C1379.65 124.557 1379.16 124.364 1378.54 124.364C1378.11 124.364 1377.73 124.456 1377.39 124.642C1377.06 124.828 1376.79 125.098 1376.6 125.455C1376.41 125.811 1376.31 126.242 1376.31 126.75ZM1387.87 132.182C1387.06 132.182 1386.35 131.989 1385.76 131.602C1385.17 131.216 1384.72 130.684 1384.4 130.006C1384.08 129.328 1383.92 128.553 1383.92 127.682C1383.92 126.795 1384.08 126.013 1384.41 125.335C1384.74 124.653 1385.2 124.121 1385.78 123.739C1386.37 123.352 1387.06 123.159 1387.85 123.159C1388.47 123.159 1389.02 123.273 1389.51 123.5C1390 123.727 1390.41 124.045 1390.72 124.455C1391.04 124.864 1391.23 125.341 1391.31 125.886H1389.97C1389.86 125.489 1389.64 125.136 1389.28 124.83C1388.93 124.519 1388.47 124.364 1387.87 124.364C1387.35 124.364 1386.89 124.5 1386.5 124.773C1386.11 125.042 1385.8 125.422 1385.58 125.915C1385.37 126.403 1385.26 126.977 1385.26 127.636C1385.26 128.311 1385.37 128.898 1385.58 129.398C1385.79 129.898 1386.1 130.286 1386.49 130.562C1386.88 130.839 1387.34 130.977 1387.87 130.977C1388.22 130.977 1388.54 130.917 1388.82 130.795C1389.11 130.674 1389.35 130.5 1389.54 130.273C1389.74 130.045 1389.88 129.773 1389.97 129.455H1391.31C1391.23 129.97 1391.04 130.434 1390.74 130.847C1390.45 131.256 1390.06 131.581 1389.57 131.824C1389.08 132.062 1388.52 132.182 1387.87 132.182ZM1393.27 132V123.273H1394.56V124.636H1394.68C1394.86 124.17 1395.15 123.809 1395.56 123.551C1395.96 123.29 1396.45 123.159 1397.02 123.159C1397.59 123.159 1398.07 123.29 1398.45 123.551C1398.84 123.809 1399.14 124.17 1399.36 124.636H1399.45C1399.67 124.186 1400.01 123.828 1400.45 123.562C1400.9 123.294 1401.44 123.159 1402.06 123.159C1402.84 123.159 1403.48 123.403 1403.98 123.892C1404.47 124.377 1404.72 125.133 1404.72 126.159V132H1403.38V126.159C1403.38 125.515 1403.2 125.055 1402.85 124.778C1402.5 124.502 1402.08 124.364 1401.61 124.364C1400.99 124.364 1400.52 124.549 1400.18 124.92C1399.84 125.288 1399.68 125.754 1399.68 126.318V132H1398.31V126.023C1398.31 125.527 1398.15 125.127 1397.83 124.824C1397.51 124.517 1397.09 124.364 1396.58 124.364C1396.24 124.364 1395.91 124.456 1395.61 124.642C1395.31 124.828 1395.07 125.085 1394.88 125.415C1394.7 125.741 1394.61 126.117 1394.61 126.545V132H1393.27ZM1410.83 132.182C1409.99 132.182 1409.27 131.996 1408.66 131.625C1408.05 131.25 1407.58 130.727 1407.25 130.057C1406.93 129.383 1406.76 128.598 1406.76 127.705C1406.76 126.811 1406.93 126.023 1407.25 125.341C1407.58 124.655 1408.04 124.121 1408.63 123.739C1409.22 123.352 1409.91 123.159 1410.7 123.159C1411.15 123.159 1411.6 123.235 1412.04 123.386C1412.49 123.538 1412.89 123.784 1413.25 124.125C1413.62 124.462 1413.91 124.909 1414.12 125.466C1414.34 126.023 1414.45 126.708 1414.45 127.523V128.091H1407.72V126.932H1413.08C1413.08 126.439 1412.98 126 1412.79 125.614C1412.59 125.227 1412.32 124.922 1411.96 124.699C1411.6 124.475 1411.18 124.364 1410.7 124.364C1410.16 124.364 1409.7 124.496 1409.31 124.761C1408.92 125.023 1408.63 125.364 1408.42 125.784C1408.21 126.205 1408.1 126.655 1408.1 127.136V127.909C1408.1 128.568 1408.22 129.127 1408.45 129.585C1408.68 130.04 1409 130.386 1409.41 130.625C1409.81 130.86 1410.29 130.977 1410.83 130.977C1411.18 130.977 1411.5 130.928 1411.79 130.83C1412.07 130.727 1412.32 130.576 1412.53 130.375C1412.74 130.17 1412.9 129.917 1413.01 129.614L1414.31 129.977C1414.17 130.417 1413.94 130.803 1413.62 131.136C1413.3 131.466 1412.9 131.723 1412.43 131.909C1411.95 132.091 1411.42 132.182 1410.83 132.182ZM1417.83 126.75V132H1416.49V123.273H1417.78V124.636H1417.89C1418.1 124.193 1418.41 123.837 1418.83 123.568C1419.24 123.295 1419.78 123.159 1420.44 123.159C1421.03 123.159 1421.55 123.28 1421.99 123.523C1422.43 123.761 1422.78 124.125 1423.02 124.614C1423.27 125.098 1423.39 125.712 1423.39 126.455V132H1422.05V126.545C1422.05 125.86 1421.88 125.326 1421.52 124.943C1421.16 124.557 1420.67 124.364 1420.05 124.364C1419.63 124.364 1419.24 124.456 1418.91 124.642C1418.57 124.828 1418.31 125.098 1418.12 125.455C1417.92 125.811 1417.83 126.242 1417.83 126.75ZM1429.64 123.273V124.409H1425.12V123.273H1429.64ZM1426.44 121.182H1427.78V129.5C1427.78 129.879 1427.83 130.163 1427.94 130.352C1428.05 130.538 1428.2 130.663 1428.37 130.727C1428.55 130.788 1428.74 130.818 1428.94 130.818C1429.08 130.818 1429.2 130.811 1429.3 130.795C1429.39 130.777 1429.47 130.761 1429.53 130.75L1429.8 131.955C1429.71 131.989 1429.58 132.023 1429.42 132.057C1429.26 132.095 1429.05 132.114 1428.8 132.114C1428.42 132.114 1428.05 132.032 1427.69 131.869C1427.33 131.706 1427.03 131.458 1426.79 131.125C1426.55 130.792 1426.44 130.371 1426.44 129.864V121.182ZM1437.68 125.227L1436.48 125.568C1436.4 125.367 1436.29 125.172 1436.14 124.983C1436 124.79 1435.8 124.631 1435.55 124.506C1435.3 124.381 1434.98 124.318 1434.59 124.318C1434.06 124.318 1433.61 124.441 1433.26 124.688C1432.9 124.93 1432.73 125.239 1432.73 125.614C1432.73 125.947 1432.85 126.21 1433.09 126.403C1433.33 126.597 1433.71 126.758 1434.23 126.886L1435.52 127.205C1436.3 127.394 1436.89 127.684 1437.27 128.074C1437.65 128.46 1437.84 128.958 1437.84 129.568C1437.84 130.068 1437.7 130.515 1437.41 130.909C1437.13 131.303 1436.73 131.614 1436.22 131.841C1435.71 132.068 1435.11 132.182 1434.43 132.182C1433.54 132.182 1432.81 131.989 1432.22 131.602C1431.64 131.216 1431.27 130.652 1431.11 129.909L1432.39 129.591C1432.51 130.061 1432.74 130.413 1433.07 130.648C1433.42 130.883 1433.86 131 1434.41 131C1435.03 131 1435.53 130.867 1435.9 130.602C1436.27 130.333 1436.46 130.011 1436.46 129.636C1436.46 129.333 1436.35 129.08 1436.14 128.875C1435.92 128.667 1435.6 128.511 1435.16 128.409L1433.71 128.068C1432.91 127.879 1432.32 127.585 1431.94 127.188C1431.57 126.786 1431.39 126.284 1431.39 125.682C1431.39 125.189 1431.53 124.754 1431.8 124.375C1432.08 123.996 1432.46 123.699 1432.94 123.483C1433.43 123.267 1433.98 123.159 1434.59 123.159C1435.46 123.159 1436.13 123.348 1436.63 123.727C1437.12 124.106 1437.47 124.606 1437.68 125.227Z" fill="white"/>
</g>
</g>
</g>
<defs>
<filter id="filter0_i_5530_2665" x="-194" y="-233" width="2180" height="2144.61" filterUnits="userSpaceOnUse" color-interpolation-filters="sRGB">
<feFlood flood-opacity="0" result="BackgroundImageFix"/>
<feBlend mode="normal" in="SourceGraphic" in2="BackgroundImageFix" result="shape"/>
<feColorMatrix in="SourceAlpha" type="matrix" values="0 0 0 0 0 0 0 0 0 0 0 0 0 0 0 0 0 0 127 0" result="hardAlpha"/>
<feMorphology radius="24" operator="erode" in="SourceAlpha" result="effect1_innerShadow_5530_2665"/>
<feOffset dx="24" dy="32"/>
<feGaussianBlur stdDeviation="92"/>
<feComposite in2="hardAlpha" operator="arithmetic" k2="-1" k3="1"/>
<feColorMatrix type="matrix" values="0 0 0 0 0.0235294 0 0 0 0 0.0313726 0 0 0 0 0.34902 0 0 0 0.75 0"/>
<feBlend mode="normal" in2="shape" result="effect1_innerShadow_5530_2665"/>
</filter>
<filter id="filter1_i_5530_2665" x="-194" y="5.61816" width="1694.33" height="1667.38" filterUnits="userSpaceOnUse" color-interpolation-filters="sRGB">
<feFlood flood-opacity="0" result="BackgroundImageFix"/>
<feBlend mode="normal" in="SourceGraphic" in2="BackgroundImageFix" result="shape"/>
<feColorMatrix in="SourceAlpha" type="matrix" values="0 0 0 0 0 0 0 0 0 0 0 0 0 0 0 0 0 0 127 0" result="hardAlpha"/>
<feMorphology radius="24" operator="erode" in="SourceAlpha" result="effect1_innerShadow_5530_2665"/>
<feOffset dx="24" dy="32"/>
<feGaussianBlur stdDeviation="92"/>
<feComposite in2="hardAlpha" operator="arithmetic" k2="-1" k3="1"/>
<feColorMatrix type="matrix" values="0 0 0 0 0.0235294 0 0 0 0 0.0313726 0 0 0 0 0.34902 0 0 0 0.75 0"/>
<feBlend mode="normal" in2="shape" result="effect1_innerShadow_5530_2665"/>
</filter>
<filter id="filter2_i_5530_2665" x="-99.9988" y="206.877" width="1442.45" height="1421.53" filterUnits="userSpaceOnUse" color-interpolation-filters="sRGB">
<feFlood flood-opacity="0" result="BackgroundImageFix"/>
<feBlend mode="normal" in="SourceGraphic" in2="BackgroundImageFix" result="shape"/>
<feColorMatrix in="SourceAlpha" type="matrix" values="0 0 0 0 0 0 0 0 0 0 0 0 0 0 0 0 0 0 127 0" result="hardAlpha"/>
<feMorphology radius="24" operator="erode" in="SourceAlpha" result="effect1_innerShadow_5530_2665"/>
<feOffset dx="24" dy="32"/>
<feGaussianBlur stdDeviation="92"/>
<feComposite in2="hardAlpha" operator="arithmetic" k2="-1" k3="1"/>
<feColorMatrix type="matrix" values="0 0 0 0 0.0235294 0 0 0 0 0.0313726 0 0 0 0 0.34902 0 0 0 0.75 0"/>
<feBlend mode="normal" in2="shape" result="effect1_innerShadow_5530_2665"/>
</filter>
<radialGradient id="paint0_radial_5530_2665" cx="0" cy="0" r="1" gradientUnits="userSpaceOnUse" gradientTransform="translate(755 142.5) rotate(90) scale(430.139 547.896)">
<stop stop-color="#3B8AFF"/>
<stop offset="1" stop-color="#0048B3"/>
</radialGradient>
<clipPath id="clip0_5530_2665">
<path d="M0 0H1510V269C1510 277.837 1502.84 285 1494 285H16C7.16346 285 0 277.837 0 269V0Z" fill="white"/>
</clipPath>
</defs>
</svg>
